<?xml version="1.0" encoding="utf-8"?>
<svg width="118pt" height="150pt" viewBox="0.6620000004768372 14.237000465393066 150 150" version="1.1" xmlns="http://www.w3.org/2000/svg">
  <path fill="#24ce7b" stroke="#24ce7b" stroke-width="0.09375" opacity="1.00" d="M 53.686 35.998 C 65.306 29.628 79.706 28.718 92.066 33.438 C 104.146 37.988 114.076 47.888 118.656 59.958 C 123.336 72.098 122.576 86.208 116.536 97.728 C 112.686 105.558 105.896 111.198 99.916 117.318 C 94.786 112.528 90.296 107.008 84.726 102.708 C 81.346 105.678 78.636 109.768 74.256 111.328 C 71.346 112.418 68.466 110.818 66.156 109.168 C 73.236 101.988 80.436 94.928 87.526 87.748 C 92.236 82.988 93.396 75.228 90.376 69.268 C 87.116 62.348 78.636 58.478 71.276 60.698 C 63.516 62.708 58.086 70.988 59.466 78.918 C 60.646 87.088 68.356 91.638 73.426 97.378 C 69.656 101.258 65.636 104.918 62.056 108.988 C 64.706 112.958 69.636 115.778 74.476 114.598 C 78.876 113.568 81.886 109.948 84.956 106.918 C 90.076 112.148 95.416 117.168 100.416 122.518 C 103.356 125.728 98.746 130.978 95.156 128.568 C 92.036 126.068 89.516 122.928 86.506 120.318 C 85.436 120.828 84.856 121.648 84.746 122.768 C 87.126 125.808 90.366 128.058 92.666 131.158 C 94.106 133.528 92.376 136.918 89.636 137.208 C 86.526 137.638 84.896 134.438 82.746 132.818 C 81.686 131.298 78.876 133.548 80.456 134.708 C 82.206 137.158 86.216 139.268 84.726 142.828 C 83.626 145.858 79.876 145.748 77.716 143.958 C 78.426 141.268 78.756 138.128 76.786 135.858 C 75.336 133.728 72.716 133.248 70.346 132.888 C 70.306 128.998 67.726 125.668 63.906 124.808 C 65.096 121.288 63.966 116.908 60.416 115.268 C 57.266 113.468 53.636 114.888 51.116 117.058 C 46.326 111.998 40.836 107.508 37.056 101.578 C 30.236 91.248 28.016 78.078 30.816 66.048 C 33.656 53.358 42.276 42.178 53.686 35.998 Z"/>
  <path fill="#24ce7b" stroke="#24ce7b" stroke-width="0.09375" opacity="1.00" d="M 55.016 118.248 C 57.976 116.178 62.296 119.588 61.036 122.958 C 59.856 125.418 57.646 127.248 55.526 128.908 C 52.516 130.718 48.446 127.488 49.596 124.148 C 50.756 121.718 52.936 119.888 55.016 118.248 Z"/>
  <path fill="#24ce7b" stroke="#24ce7b" stroke-width="0.09375" opacity="1.00" d="M 61.116 128.508 C 64.306 126.758 68.286 130.508 66.726 133.808 C 65.286 136.018 63.346 137.928 61.196 139.448 C 58.016 141.248 53.986 137.498 55.546 134.178 C 56.986 131.938 58.926 130.008 61.116 128.508 Z"/>
  <path fill="#24ce7b" stroke="#24ce7b" stroke-width="0.09375" opacity="1.00" d="M 69.966 136.368 C 73.366 135.248 76.686 139.658 74.466 142.548 C 72.796 144.568 71.026 146.818 68.546 147.848 C 65.316 148.868 62.146 145.068 63.796 142.078 C 65.506 139.888 67.406 137.548 69.966 136.368 Z"/>
</svg>